<?xml version="1.0" encoding="utf-8"?>
<!-- Generator: Adobe Illustrator 19.1.0, SVG Export Plug-In . SVG Version: 6.00 Build 0)  -->
<svg version="1.1" id="Layer_1" xmlns="http://www.w3.org/2000/svg" xmlns:xlink="http://www.w3.org/1999/xlink" x="0px" y="0px"
	 viewBox="0 0 500 500" style="enable-background:new 0 0 500 500;" xml:space="preserve">
<style type="text/css">
	.st0{fill:none;stroke:#6D5089;stroke-width:31;stroke-linecap:round;stroke-miterlimit:10;}
	.st1{fill:#6D5089;}
	.st2{fill:#FFFFFF;stroke:#000000;stroke-miterlimit:10;}
	.st3{enable-background:new    ;}
	.st4{fill:#6D5089;stroke:#FFFFFF;stroke-width:7;stroke-miterlimit:10;}
	.st5{fill:#6D5089;stroke:#6D5089;stroke-width:27;stroke-miterlimit:10;}
	.st6{fill:#FFFFFF;}
	.st7{fill:none;stroke:#6D5089;stroke-width:20;stroke-linecap:round;stroke-miterlimit:10;}
</style>
<g>
	<g>
		<path class="st0" d="M378.7,367.1c-36.2,39.8-90.2,62.6-147.9,56.9C133.8,414.4,62.9,328,72.5,231c1.9-19.2,6.8-37.3,14.2-54.1"/>
		<g>
			<polygon class="st1" points="119.5,214.6 124.5,122 41.8,164 			"/>
		</g>
	</g>
</g>
<path class="st2" d="M422.9,378.4"/>
<g>
	<g>
		<path class="st0" d="M149.7,101.8c32.8-22.1,73.2-33.3,115.7-29.1c97,9.6,167.9,95.9,158.3,192.9c-0.6,6.1-1.5,12.1-2.7,17.9"/>
		<g>
			<polygon class="st1" points="380.8,253.9 395.8,345.4 467.6,286.6 			"/>
		</g>
	</g>
</g>
<path class="st1" d="M328.5,152.2h-157c-15.7,0-28.5,12.8-28.5,28.5v150c0,15.7,12.8,28.5,28.5,28.5h157c15.7,0,28.5-12.8,28.5-28.5
	v-150C357,165,344.2,152.2,328.5,152.2z M336.9,330c0,5.1-4.2,9.3-9.3,9.3H172.4c-5.1,0-9.3-4.2-9.3-9.3v-97.6
	c0-5.1,4.2-9.3,9.3-9.3h155.2c5.1,0,9.3,4.2,9.3,9.3L336.9,330L336.9,330z"/>
<g class="st3">
	<path class="st1" d="M219.6,299.9l19.8-2.5c0.5,2.8,1.4,4.7,2.6,5.9c1.2,1.1,2.8,1.7,4.5,1.7c3.2,0,5.7-1.6,7.5-4.8
		c1.3-2.4,2.3-7.4,2.9-15.1c-2.4,2.4-4.8,4.2-7.3,5.4c-2.5,1.1-5.4,1.7-8.7,1.7c-6.4,0-11.8-2.3-16.2-6.8
		c-4.4-4.6-6.6-10.3-6.6-17.3c0-4.8,1.1-9.1,3.4-13s5.3-6.9,9.3-8.9c3.9-2,8.9-3,14.8-3c7.2,0,12.9,1.2,17.2,3.7
		c4.3,2.5,7.8,6.4,10.4,11.7c2.6,5.4,3.9,12.4,3.9,21.2c0,12.9-2.7,22.4-8.2,28.4s-13,9-22.6,9c-5.7,0-10.2-0.7-13.5-2
		c-3.3-1.3-6-3.2-8.2-5.8C222.5,306.9,220.8,303.7,219.6,299.9z M256.3,268c0-3.9-1-6.9-2.9-9.1s-4.3-3.3-7.1-3.3
		c-2.6,0-4.8,1-6.6,3c-1.7,2-2.6,5-2.6,8.9c0,4,0.9,7.1,2.7,9.2c1.8,2.1,4.1,3.2,6.8,3.2c2.8,0,5.1-1,7-3.1S256.3,271.8,256.3,268z"
		/>
</g>
<path class="st4" d="M316,173.8c0,11-9,20-20,20h-2c-11,0-20-9-20-20v-30c0-11,9-20,20-20h2c11,0,20,9,20,20V173.8z"/>
<path class="st4" d="M229,173.8c0,11-9,20-20,20h-2c-11,0-20-9-20-20v-30c0-11,9-20,20-20h2c11,0,20,9,20,20V173.8z"/>
<path class="st5" d="M404.6,957.1c0,13.8-11.2,25-25,25H117.9c-13.8,0-25-11.2-25-25v-250c0-13.8,11.2-25,25-25h261.7
	c13.8,0,25,11.2,25,25L404.6,957.1L404.6,957.1z"/>
<path class="st6" d="M393.7,956c0,8.6-6.9,15.5-15.5,15.5H119.4c-8.6,0-15.5-6.9-15.5-15.5V793.3c0-8.6,6.9-15.5,15.5-15.5h258.7
	c8.6,0,15.5,6.9,15.5,15.5L393.7,956L393.7,956z"/>
<text transform="matrix(1 0 0 1 189.8984 932.6631)" class="st1" style="font-family:'Arial-Black'; font-size:166.6774px;">9</text>
<path class="st4" d="M358.8,695.7c0,18.4-14.9,33.3-33.3,33.3h-3.3c-18.4,0-33.3-14.9-33.3-33.3v-50c0-18.4,14.9-33.3,33.3-33.3h3.3
	c18.4,0,33.3,14.9,33.3,33.3V695.7z"/>
<path class="st4" d="M213.7,695.7c0,18.4-14.9,33.3-33.3,33.3H177c-18.4,0-33.3-14.9-33.3-33.3v-50c0-18.4,14.9-33.3,33.3-33.3h3.3
	c18.4,0,33.3,14.9,33.3,33.3V695.7z"/>
<path class="st5" d="M-190.1,379.6c0,13-10.5,23.5-23.5,23.5h-245.9c-13,0-23.5-10.5-23.5-23.5V144.7c0-13,10.5-23.5,23.5-23.5
	h245.9c13,0,23.5,10.5,23.5,23.5L-190.1,379.6L-190.1,379.6z"/>
<path class="st6" d="M-200.4,378.5c0,8-6.5,14.6-14.6,14.6H-458c-8,0-14.6-6.5-14.6-14.6V225.6c0-8,6.5-14.6,14.6-14.6H-215
	c8,0,14.6,6.5,14.6,14.6V378.5z"/>
<path class="st4" d="M-233.1,133.9c0,17.3-14,31.3-31.3,31.3h-3.1c-17.3,0-31.3-14-31.3-31.3v-47c0-17.3,14-31.3,31.3-31.3h3.1
	c17.3,0,31.3,14,31.3,31.3L-233.1,133.9L-233.1,133.9z"/>
<path class="st4" d="M-369.5,133.9c0,17.3-14,31.3-31.3,31.3h-3.1c-17.3,0-31.3-14-31.3-31.3v-47c0-17.3,14-31.3,31.3-31.3h3.1
	c17.3,0,31.3,14,31.3,31.3V133.9z"/>
<g>
	<g>
		<path class="st7" d="M-298,353c-12.4,9.2-28.2,14-44.8,12.4c-35.6-3.5-61.6-35.2-58.1-70.8c0-0.4,0.1-0.9,0.1-1.3"/>
		<g>
			<polygon class="st1" points="-374.7,314 -381.9,254.6 -429.8,290.5 			"/>
		</g>
	</g>
</g>
<g>
	<g>
		<path class="st7" d="M-359.7,240.5c9.1-3.5,19.2-5,29.5-4c31.3,3.1,55.2,28,58.1,58.2"/>
		<g>
			<polygon class="st1" points="-301.9,280 -282.2,336.5 -243.1,291.2 			"/>
		</g>
	</g>
</g>
<path class="st5" d="M-179.8,957.8c0,13.9-11.2,25.1-25.1,25.1h-262.5c-13.9,0-25.1-11.2-25.1-25.1V707c0-13.9,11.2-25.1,25.1-25.1
	h262.5c13.9,0,25.1,11.2,25.1,25.1V957.8z"/>
<path class="st6" d="M-190.9,956.6c0,8.6-7,15.5-15.5,15.5H-466c-8.6,0-15.5-7-15.5-15.5V793.4c0-8.6,7-15.5,15.5-15.5h259.6
	c8.6,0,15.5,7,15.5,15.5L-190.9,956.6L-190.9,956.6z"/>
<path class="st4" d="M-225.8,695.5c0,18.5-15,33.4-33.4,33.4h-3.3c-18.5,0-33.4-15-33.4-33.4v-50.2c0-18.5,15-33.4,33.4-33.4h3.3
	c18.5,0,33.4,15,33.4,33.4L-225.8,695.5L-225.8,695.5z"/>
<path class="st4" d="M-371.4,695.5c0,18.5-15,33.4-33.4,33.4h-3.3c-18.5,0-33.4-15-33.4-33.4v-50.2c0-18.5,15-33.4,33.4-33.4h3.3
	c18.5,0,33.4,15,33.4,33.4V695.5z"/>
<g>
	<g>
		<path class="st7" d="M-295.1,929.4c-13.3,9.8-30.1,15-47.9,13.2c-38-3.7-65.7-37.6-62-75.6c0.1-1.5,0.3-3,0.6-4.4"/>
		<g>
			<polygon class="st1" points="-379,883.9 -384.7,824.3 -433.4,859 			"/>
		</g>
	</g>
</g>
<g>
	<g>
		<path class="st7" d="M-360.9,809.2c9.7-3.7,20.5-5.3,31.5-4.2c34.5,3.4,60.5,31.6,62.3,65.2"/>
		<g>
			<polygon class="st1" points="-296.4,854.8 -278.3,911.8 -238,867.6 			"/>
		</g>
	</g>
</g>
<text transform="matrix(1 0 0 1 -364.356 903.0664)" class="st1" style="font-family:'Arial-Black'; font-size:86.4759px;">9</text>
</svg>
