<?xml version="1.0" encoding="utf-8"?>
<!-- Generator: Adobe Illustrator 15.0.2, SVG Export Plug-In . SVG Version: 6.00 Build 0)  -->
<!DOCTYPE svg PUBLIC "-//W3C//DTD SVG 1.1//EN" "http://www.w3.org/Graphics/SVG/1.1/DTD/svg11.dtd">
<svg version="1.1" id="Layer_1" xmlns="http://www.w3.org/2000/svg" xmlns:xlink="http://www.w3.org/1999/xlink" x="0px" y="0px"
	 width="500px" height="500px" viewBox="0 0 500 500" enable-background="new 0 0 500 500" xml:space="preserve">
<g>
	<g>
		<path fill="none" stroke="#6D5089" stroke-width="31" stroke-linecap="round" stroke-miterlimit="10" d="M378.688,367.064
			c-36.25,39.809-90.191,62.589-147.894,56.905c-97.003-9.556-167.896-95.938-158.34-192.941c1.89-19.183,6.783-37.344,14.17-54.064
			"/>
		<g>
			<polygon fill="#6D5089" points="119.495,214.601 124.482,122.004 41.792,163.981 			"/>
		</g>
	</g>
</g>
<path fill="#FFFFFF" stroke="#000000" stroke-miterlimit="10" d="M422.85,378.356"/>
<g>
	<g>
		<path fill="none" stroke="#6D5089" stroke-width="31" stroke-linecap="round" stroke-miterlimit="10" d="M149.722,101.79
			c32.829-22.065,73.235-33.283,115.675-29.103c97.005,9.555,167.896,95.938,158.342,192.943c-0.6,6.088-1.502,12.074-2.691,17.943"
			/>
		<g>
			<polygon fill="#6D5089" points="380.824,253.875 395.848,345.381 467.588,286.618 			"/>
		</g>
	</g>
</g>
<path fill="#6D5089" d="M328.501,152.187H171.499c-15.715,0-28.5,12.785-28.5,28.5v150c0,15.715,12.785,28.5,28.5,28.5h157.002
	c15.715,0,28.5-12.785,28.5-28.5v-150C357.001,164.972,344.216,152.187,328.501,152.187z M336.912,329.987
	c0,5.133-4.162,9.295-9.295,9.295H172.383c-5.134,0-9.295-4.162-9.295-9.295v-97.601c0-5.134,4.162-9.295,9.295-9.295h155.234
	c5.133,0,9.295,4.162,9.295,9.295V329.987z"/>
<text transform="matrix(1 0 0 1 214.667 316)" fill="#6D5089" font-family="'Arial-Black'" font-size="100">9</text>
<path fill="#6D5089" stroke="#FFFFFF" stroke-width="7" stroke-miterlimit="10" d="M316,173.82c0,11.046-8.954,20-20,20h-2
	c-11.046,0-20-8.954-20-20v-30c0-11.046,8.954-20,20-20h2c11.046,0,20,8.954,20,20V173.82z"/>
<path fill="#6D5089" stroke="#FFFFFF" stroke-width="7" stroke-miterlimit="10" d="M228.957,173.82c0,11.046-8.954,20-20,20h-2
	c-11.046,0-20-8.954-20-20v-30c0-11.046,8.954-20,20-20h2c11.046,0,20,8.954,20,20V173.82z"/>
<path fill="#6D5089" stroke="#6D5089" stroke-width="27" stroke-miterlimit="10" d="M404.634,957.142
	c0,13.808-11.192,25.001-25.003,25.001H117.946c-13.808,0-25.001-11.193-25.001-25.001V707.125
	c0-13.807,11.194-25.002,25.001-25.002h261.685c13.811,0,25.003,11.195,25.003,25.002V957.142z"/>
<path fill="#FFFFFF" d="M393.651,955.976c0,8.556-6.937,15.492-15.493,15.492H119.42c-8.557,0-15.493-6.937-15.493-15.492V793.297
	c0-8.558,6.936-15.493,15.493-15.493h258.738c8.557,0,15.493,6.936,15.493,15.493V955.976z"/>
<text transform="matrix(1 0 0 1 189.8984 932.6631)" fill="#6D5089" font-family="'Arial-Black'" font-size="166.6774">9</text>
<path fill="#6D5089" stroke="#FFFFFF" stroke-width="7" stroke-miterlimit="10" d="M358.797,695.679
	c0,18.412-14.925,33.336-33.336,33.336h-3.335c-18.41,0-33.335-14.924-33.335-33.336v-50.004c0-18.408,14.925-33.336,33.335-33.336
	h3.335c18.411,0,33.336,14.928,33.336,33.336V695.679z"/>
<path fill="#6D5089" stroke="#FFFFFF" stroke-width="7" stroke-miterlimit="10" d="M213.715,695.679
	c0,18.412-14.924,33.336-33.335,33.336h-3.333c-18.41,0-33.335-14.924-33.335-33.336v-50.004c0-18.408,14.925-33.336,33.335-33.336
	h3.333c18.412,0,33.335,14.928,33.335,33.336V695.679z"/>
<path fill="#6D5089" stroke="#6D5089" stroke-width="27" stroke-miterlimit="10" d="M-190.077,379.572
	c0,12.973-10.517,23.49-23.49,23.49h-245.866c-12.973,0-23.49-10.518-23.49-23.49V144.671c0-12.973,10.517-23.49,23.49-23.49
	h245.866c12.973,0,23.49,10.517,23.49,23.49V379.572z"/>
<path fill="#FFFFFF" d="M-200.395,378.477c0,8.039-6.518,14.557-14.556,14.557h-243.097c-8.04,0-14.557-6.518-14.557-14.557V225.633
	c0-8.04,6.517-14.557,14.557-14.557h243.097c8.039,0,14.556,6.517,14.556,14.557V378.477z"/>
<path fill="#6D5089" stroke="#FFFFFF" stroke-width="7" stroke-miterlimit="10" d="M-233.144,133.917
	c0,17.298-14.022,31.32-31.32,31.32h-3.132c-17.298,0-31.32-14.022-31.32-31.32v-46.98c0-17.297,14.022-31.32,31.32-31.32h3.132
	c17.298,0,31.32,14.022,31.32,31.32V133.917z"/>
<path fill="#6D5089" stroke="#FFFFFF" stroke-width="7" stroke-miterlimit="10" d="M-369.454,133.917
	c0,17.298-14.022,31.32-31.32,31.32h-3.132c-17.298,0-31.32-14.022-31.32-31.32v-46.98c0-17.297,14.022-31.32,31.32-31.32h3.132
	c17.298,0,31.32,14.022,31.32,31.32V133.917z"/>
<g>
	<g>
		<path fill="none" stroke="#6D5089" stroke-width="20" stroke-linecap="round" stroke-miterlimit="10" d="M-298.02,352.97
			c-12.443,9.203-28.209,14.004-44.826,12.368c-35.578-3.506-61.58-35.189-58.075-70.768c0.042-0.432,0.089-0.861,0.14-1.29"/>
		<g>
			<polygon fill="#6D5089" points="-374.744,313.966 -381.911,254.57 -429.769,290.475 			"/>
		</g>
	</g>
</g>
<g>
	<g>
		<path fill="none" stroke="#6D5089" stroke-width="20" stroke-linecap="round" stroke-miterlimit="10" d="M-359.691,240.465
			c9.112-3.504,19.158-4.992,29.536-3.97c31.313,3.084,55.208,27.997,58.098,58.18"/>
		<g>
			<polygon fill="#6D5089" points="-301.884,280.003 -282.235,336.511 -243.119,291.239 			"/>
		</g>
	</g>
</g>
<path fill="#6D5089" stroke="#6D5089" stroke-width="27" stroke-miterlimit="10" d="M-179.848,957.768
	c0,13.852-11.229,25.081-25.08,25.081h-262.511c-13.851,0-25.08-11.229-25.08-25.081V706.966c0-13.851,11.229-25.08,25.08-25.08
	h262.511c13.851,0,25.08,11.229,25.08,25.08V957.768z"/>
<path fill="#FFFFFF" d="M-190.865,956.599c0,8.583-6.959,15.542-15.542,15.542H-465.96c-8.583,0-15.542-6.959-15.542-15.542V793.409
	c0-8.585,6.958-15.542,15.542-15.542h259.554c8.583,0,15.542,6.957,15.542,15.542V956.599z"/>
<path fill="#6D5089" stroke="#FFFFFF" stroke-width="7" stroke-miterlimit="10" d="M-225.83,695.484
	c0,18.469-14.972,33.44-33.441,33.44h-3.344c-18.469,0-33.441-14.972-33.441-33.44v-50.161c0-18.47,14.972-33.439,33.441-33.439
	h3.344c18.469,0,33.441,14.97,33.441,33.439V695.484z"/>
<path fill="#6D5089" stroke="#FFFFFF" stroke-width="7" stroke-miterlimit="10" d="M-371.368,695.484
	c0,18.469-14.971,33.44-33.44,33.44h-3.344c-18.469,0-33.441-14.972-33.441-33.44v-50.161c0-18.47,14.972-33.439,33.441-33.439
	h3.344c18.469,0,33.44,14.97,33.44,33.439V695.484z"/>
<g>
	<g>
		<path fill="none" stroke="#6D5089" stroke-width="20" stroke-linecap="round" stroke-miterlimit="10" d="M-295.099,929.365
			c-13.285,9.826-30.119,14.952-47.86,13.206c-37.986-3.743-65.748-37.572-62.006-75.559c0.147-1.491,0.34-2.966,0.578-4.425"/>
		<g>
			<polygon fill="#6D5089" points="-379.037,883.867 -384.657,824.306 -433.433,858.953 			"/>
		</g>
	</g>
</g>
<g>
	<g>
		<path fill="none" stroke="#6D5089" stroke-width="20" stroke-linecap="round" stroke-miterlimit="10" d="M-360.944,809.245
			c9.729-3.741,20.455-5.33,31.536-4.239c34.49,3.397,60.55,31.597,62.256,65.192"/>
		<g>
			<polygon fill="#6D5089" points="-296.431,854.795 -278.257,911.794 -237.977,867.555 			"/>
		</g>
	</g>
</g>
<text transform="matrix(1 0 0 1 -364.356 903.0664)" fill="#6D5089" font-family="'Arial-Black'" font-size="86.4759">9</text>
</svg>
